HIERARCHY
ROOT pelvis
{
  OFFSET 0 100 0
  CHANNELS 6 Xposition Yposition Zposition Zrotation Xrotation Yrotation
  JOINT pelvis_right_femur
  {
    OFFSET -10.78128 -3.44521 -0.5502486
    CHANNELS 3 Zrotation Xrotation Yrotation
    JOINT right_femur_tibia
    {
      OFFSET -0.8047443 -44.0398 -0.1307829
      CHANNELS 3 Zrotation Xrotation Yrotation
      JOINT right_tibia_foot
      {
        OFFSET 3.006224 -47.83518 -5
        CHANNELS 3 Zrotation Xrotation Yrotation
        End Site
        {
          OFFSET 0 -5 15
        }
      }
    }
  }
  JOINT pelvis_left_femur
  {
    OFFSET 10.78128 -3.44521 -0.5502486
    CHANNELS 3 Zrotation Xrotation Yrotation
    JOINT left_femur_tibia
    {
      OFFSET 0.8047443 -44.0398 -0.1307829
      CHANNELS 3 Zrotation Xrotation Yrotation
      JOINT left_tibia_foot
      {
        OFFSET -4.370144 -48.10324 -4.275266
        CHANNELS 3 Zrotation Xrotation Yrotation
        End Site
        {
          OFFSET 0 -5 15
        }
      }
    }
  }
  JOINT pelvis_spine1
  {
    OFFSET 0 6.468898 -3.129235
    CHANNELS 3 Zrotation Xrotation Yrotation
    JOINT spine1
    {
      OFFSET 0 23.15396 4.99043
      CHANNELS 3 Zrotation Xrotation Yrotation
      JOINT spine2
      {
        OFFSET 0 20.79997 -5.064912
        CHANNELS 3 Zrotation Xrotation Yrotation
        JOINT neck
        {
          OFFSET 0 14.38658 9.616178
          CHANNELS 3 Zrotation Xrotation Yrotation
          End Site
          {
            OFFSET 0 20 0
          }
        }
      }
      JOINT right_manubrium
      {
        OFFSET -5.722621 16.35077 3.967754
        CHANNELS 3 Zrotation Xrotation Yrotation
        JOINT right_clavicle
        {
          OFFSET -13.16364 1.694482 -4.693211
          CHANNELS 3 Zrotation Xrotation Yrotation
          JOINT right_humerus
          {
            OFFSET -28.5034 -0.3100689 -2.792744
            CHANNELS 3 Zrotation Xrotation Yrotation
            JOINT right_radius
            {
              OFFSET -25.15693 0.02248979 -1.271978
              CHANNELS 3 Zrotation Xrotation Yrotation
              End Site
              {
                OFFSET -15 0 0
              }
            }
          }
        }
      }
      JOINT left_manubrium
      {
        OFFSET 5.722621 16.35077 3.967754
        CHANNELS 3 Zrotation Xrotation Yrotation
        JOINT left_clavicle
        {
          OFFSET 13.16364 1.694482 -4.693211
          CHANNELS 3 Zrotation Xrotation Yrotation
          JOINT left_humerus
          {
            OFFSET 29.39168 -1.063119 -2.237045
            CHANNELS 3 Zrotation Xrotation Yrotation
            JOINT left_radius
            {
              OFFSET 24.59957 -0.9528479 0.9047498
              CHANNELS 3 Zrotation Xrotation Yrotation
              End Site
              {
                OFFSET 15 -0 -0
              }
            }
          }
        }
      }
    }
  }
}
MOTION
Frames: 15
Frame Time: 0.0416666666667
0 103.5113 0 1.046098 -1.692902 -0.04006657 3.417481 -13.42868 9.724783 3.059212e-06 35.55209 7.369598e-07 -6.916014 -17.48155 -4.982511 -6.854865 6.938443 -22.83051 -4.587705e-06 5.573223 2.487215e-07 7.837187 -17.33169 27.77839 -4.157339 -2.672426 4.562022 2.497848 9.240133 -7.710545 1.201677 22.41724 6.654561 3.077845 -23.81665 8.846452 6.584983 -20.13699 11.64736 84.71519 36.98491 -17.32238 1.188937e-06 -2.072838e-06 16.76199 -7.168843 8.783613 5.360503 5.096732 -19.01428 -1.479321 -95.64748 29.82075 24.34492 9.000085e-07 -1.186476e-06 -13.62004 3.014114 17.31081 10.56007
0.2978734 103.467 1.158137 0.9099812 -1.588853 0.03827319 3.576153 -15.44563 9.612684 2.709805e-06 37.83944 7.472579e-07 -6.555135 -16.63293 -4.919902 -6.856314 8.613343 -22.87913 -3.623525e-06 5.391612 -9.685282e-07 7.484297 -17.82612 26.82207 -4.015631 -2.651812 4.375627 2.496892 9.263288 -7.879581 1.168486 22.32046 6.780935 3.025519 -23.96532 9.026688 6.586843 -20.01576 11.63388 85.42262 36.65092 -18.13741 1.014462e-06 -1.816066e-06 16.66255 -7.058236 8.921093 5.143652 5.042073 -19.17057 -1.653009 -95.33349 29.81659 24.07194 5.93591e-07 -1.078819e-06 -14.54728 3.17344 17.17973 10.54598
0.6102673 103.4706 2.474501 0.7554492 -1.292221 0.2391704 3.795978 -17.70715 9.249116 2.445291e-06 38.45335 5.174432e-07 -6.264813 -15.62899 -4.647412 -6.818449 10.16567 -22.76073 -2.845412e-06 5.295685 -1.554336e-06 6.979107 -18.45813 25.73696 -3.824748 -2.591469 4.197129 2.517835 9.224027 -8.02447 1.123682 22.20948 6.952016 3.042373 -24.20185 9.189728 6.486956 -19.83127 11.59642 86.07397 36.29761 -18.98401 8.775557e-07 -1.484629e-06 16.35491 -7.075452 8.975281 4.972324 5.138725 -19.44287 -1.810335 -94.85324 29.72443 23.50519 3.419687e-07 -9.348948e-07 -15.86593 3.488646 17.05188 10.31816
0.926073 103.4575 4.020242 0.5960996 -0.779027 0.5211961 4.053013 -20.0566 8.691938 2.346136e-06 37.31965 -3.986681e-08 -6.039238 -14.35536 -4.165134 -6.768636 11.52099 -22.49705 -2.410463e-06 5.323831 -1.210655e-06 6.383556 -19.18428 24.64354 -3.607233 -2.526723 4.050273 2.567515 9.147945 -8.14479 1.06473 22.05391 7.17932 3.158562 -24.54841 9.323055 6.322658 -19.59672 11.54784 86.60051 35.98848 -19.83326 7.908008e-07 -1.073135e-06 15.83939 -7.252881 8.957236 4.881707 5.391854 -19.82197 -1.932009 -94.25211 29.52199 22.7161 2.144827e-07 -7.562244e-07 -17.46811 3.910843 16.90362 9.926863
1.230742 103.3373 5.856056 0.4487639 -0.11389 0.8283183 4.348193 -22.42598 8.023487 2.411929e-06 34.31006 -9.281865e-07 -5.81498 -12.95999 -3.556608 -6.702016 12.65448 -22.09589 -2.421806e-06 5.481167 2.176128e-07 5.737988 -20.01565 23.66313 -3.376603 -2.460032 3.958743 2.643604 9.050357 -8.239493 1.012706 21.87227 7.442579 3.360816 -24.95093 9.433469 6.090884 -19.33075 11.49421 87.05425 35.67404 -20.69788 7.674912e-07 -5.990076e-07 15.18384 -7.614469 8.902328 4.863513 5.817574 -20.30819 -2.015137 -93.62039 29.21088 21.70868 2.548377e-07 -5.585998e-07 -19.32398 4.376662 16.72281 9.428318
1.514467 103.0716 8.007315 0.305731 0.647048 1.117089 4.635838 -24.53315 7.305186 2.470531e-06 30.17912 -1.883185e-06 -5.682498 -11.49964 -2.875672 -6.630291 13.48449 -21.59929 -2.707745e-06 5.882819 2.320468e-06 5.071403 -20.76416 22.77713 -3.146956 -2.403467 3.905541 2.738398 8.936339 -8.304941 0.9571197 21.65431 7.710212 3.617507 -25.37916 9.495111 5.84473 -19.03302 11.43444 87.29172 35.45059 -21.45202 7.873236e-07 -1.268979e-07 14.40793 -8.04997 8.808671 4.906694 6.30793 -20.80984 -2.049451 -92.91522 28.83569 20.62587 4.074838e-07 -3.684138e-07 -21.15251 4.850267 16.51898 8.877729
1.769214 102.6472 10.52691 0.126722 1.443285 1.369362 4.920647 -26.40544 6.571636 2.263701e-06 25.53116 -2.613525e-06 -5.653509 -10.11577 -2.247024 -6.498714 14.18646 -20.98893 -2.908997e-06 6.508454 4.557296e-06 4.250314 -21.34064 21.80067 -2.891516 -2.345352 3.838431 2.850262 8.784196 -8.370995 0.9057602 21.42812 7.93786 3.856288 -25.788 9.519903 5.587258 -18.69211 11.35012 87.48289 35.29798 -22.13848 8.007936e-07 2.973973e-07 13.553 -8.500909 8.757338 5.005838 6.784398 -21.28497 -2.044233 -92.18226 28.42776 19.51988 5.668369e-07 -1.849768e-07 -22.87128 5.310473 16.2805 8.34801
1.995592 102.1146 13.49269 -0.1185381 2.145416 1.594271 5.201543 -27.79968 5.930397 1.601037e-06 21.51598 -2.846198e-06 -5.735646 -8.912549 -1.814994 -6.282303 14.82685 -20.30308 -2.599924e-06 7.613736 6.376869e-06 3.144399 -21.54156 20.62171 -2.588986 -2.27667 3.721724 2.958006 8.591223 -8.436739 0.8772121 21.25062 8.074536 4.004765 -26.12328 9.526774 5.354477 -18.3099 11.23293 87.79611 35.19923 -22.72467 7.314241e-07 6.347511e-07 12.70961 -8.895994 8.819683 5.157049 7.1167 -21.62235 -2.00694 -91.61237 28.06075 18.60549 6.347992e-07 5.688308e-10 -24.1676 5.67845 16.00537 7.996838
2.203973 101.6018 16.99336 -0.4687575 2.708735 1.824556 5.503373 -28.51388 5.456527 3.612461e-07 19.03943 -2.355919e-06 -5.984054 -7.908647 -1.635907 -5.964793 15.405 -19.55063 -1.401021e-06 9.509323 7.264465e-06 1.686865 -21.1125 19.09512 -2.210924 -2.210905 3.533438 3.05748 8.370778 -8.517317 0.858527 21.10448 8.087417 4.014628 -26.38355 9.4993 5.197507 -17.89494 11.08693 88.21707 35.21153 -23.16769 5.18144e-07 8.480845e-07 11.91949 -9.124679 9.045639 5.347246 7.168686 -21.74144 -1.948425 -91.2074 27.76777 18.08489 5.142523e-07 1.974655e-07 -24.80783 5.924514 15.68413 7.911223
2.408005 101.2691 21.03697 -0.8775052 3.029433 2.091146 5.786299 -28.36854 5.164554 -1.292533e-06 18.58352 -1.111538e-06 -6.436467 -7.16148 -1.697232 -5.603482 15.74154 -18.75007 6.486831e-07 12.41155 6.822581e-06 0.09176063 -19.95405 17.36802 -1.798942 -2.146747 3.302309 3.131075 8.183406 -8.604761 0.8295903 20.99759 7.969789 3.884232 -26.52745 9.400192 5.151803 -17.47256 10.94629 88.6105 35.38142 -23.40901 1.827088e-07 8.771518e-07 11.18497 -9.149186 9.402238 5.536385 6.88026 -21.64547 -1.906691 -90.84829 27.56086 17.97345 1.780069e-07 3.683675e-07 -24.72937 6.069531 15.34736 8.039388
2.62198 101.2403 25.64414 -1.330494 3.09312 2.3918 6.13504 -27.35863 5.065012 -3.364091e-06 19.36342 7.610105e-07 -6.987536 -6.774432 -1.95977 -5.175457 15.64683 -17.83273 3.46455e-06 16.57881 5.460991e-06 -1.621154 -18.10661 15.55835 -1.319239 -2.068257 3.103762 3.174278 8.058065 -8.674216 0.8098015 20.94051 7.725863 3.632366 -26.55277 9.239487 5.15901 -17.09605 10.83488 89.03931 35.56334 -23.48824 -2.578007e-07 7.776613e-07 10.59448 -9.067109 9.898751 5.710922 6.329589 -21.39655 -1.891059 -90.6711 27.37714 18.2813 -3.014713e-07 5.162995e-07 -24.09782 6.106662 14.98274 8.364102
2.842065 101.5942 30.68109 -1.722079 2.8277 2.674057 6.548143 -25.43248 5.102515 -5.506968e-06 20.4957 2.951571e-06 -7.624834 -7.042507 -2.283323 -4.747539 14.64153 -16.7895 6.666392e-06 22.40331 3.365141e-06 -3.154362 -15.70161 13.9993 -0.8209161 -1.923039 3.056768 3.171473 8.051135 -8.670604 0.787309 20.97065 7.384729 3.320465 -26.42556 8.985246 5.190794 -16.80357 10.81458 89.25538 35.73951 -23.3524 -6.964888e-07 5.14896e-07 10.14031 -8.883271 10.39039 5.764169 5.606296 -21.09741 -1.928927 -90.55549 27.21718 18.83722 -8.390798e-07 5.752568e-07 -23.2029 6.099756 14.66098 8.698319
3.049158 102.3443 35.95817 -1.939197 2.206538 2.858733 6.942911 -22.60158 5.188331 -7.290699e-06 21.18685 4.996595e-06 -8.219834 -7.971082 -2.590237 -4.373002 12.44632 -15.59787 9.806609e-06 29.7709 9.151023e-07 -4.372683 -13.05075 12.98955 -0.3831484 -1.667621 3.244413 3.099108 8.191302 -8.544941 0.7733391 21.16079 7.005178 3.029209 -26.12303 8.655555 5.224057 -16.60642 10.91932 89.26848 35.88407 -23.00852 -1.039079e-06 1.062903e-07 9.806714 -8.821114 10.8162 5.738843 4.85696 -20.84315 -2.027515 -90.57252 27.08127 19.42689 -1.305604e-06 5.135529e-07 -22.31749 6.040053 14.37737 8.987518
3.236705 103.412 41.23778 -1.870198 1.327978 2.891831 7.103877 -18.77547 5.142716 -8.080152e-06 21.13221 6.229031e-06 -8.591082 -9.300178 -2.648327 -4.122115 8.640155 -14.28706 1.209025e-05 37.33454 -1.444767e-06 -5.089541 -10.61719 12.76766 -0.1333206 -1.304946 3.755227 2.911661 8.501716 -8.232764 0.746155 21.50633 6.695557 2.864658 -25.69826 8.273892 5.249821 -16.6348 11.17655 88.89181 36.03645 -22.25447 -1.164386e-06 -3.716679e-07 9.771382 -9.235832 11.11169 5.839555 4.231032 -20.67384 -2.18037 -90.79298 26.91298 20.06545 -1.594263e-06 3.287222e-07 -21.60007 5.911248 14.09135 9.214479
3.394668 104.6775 46.36185 -1.561993 0.3563725 2.757416 7.020875 -14.36606 4.939056 -7.87399e-06 20.20773 6.548089e-06 -8.68825 -10.69492 -2.452116 -3.929834 3.728014 -12.92088 1.317364e-05 44.14337 -3.161325e-06 -5.419748 -8.627335 13.17317 -0.08035354 -0.8814254 4.49275 2.631647 8.90587 -7.771113 0.7103931 21.93324 6.483394 2.837142 -25.19446 7.872818 5.252997 -16.82811 11.51767 88.1359 36.18773 -21.13477 -1.081972e-06 -8.454536e-07 9.961399 -10.15802 11.2888 6.136215 3.795166 -20.57644 -2.35337 -91.0853 26.69179 20.6083 -1.682704e-06 6.992262e-08 -21.08956 5.718992 13.76219 9.387593
